# xmcd CD database file
# Generated: Mon Nov 8 21:52:06 2004 by KSCD
# 
# Track frame offsets:
#       216
#       19656
#       29773
#       57833
#       76308
#       97256
#       117938
#       128688
#       141248
#       161941
#
# Disc length: 2545 seconds
#
# Revision: 4
# Processed by: cddbd v1.5.1PL0 Copyright (c) Steve Scherf et al.
# Submitted via: Kscd 1.3.3
#
DISCID=8a09ef0a
DTITLE=John Lee Hooker - Boom Boom
DYEAR=1900
DGENRE=
TTITLE0=Boom Boom
TTITLE1=I'm Bad Like Jesse James
TTITLE2=Same Old Blues Again
TTITLE3=Sugar Mama
TTITLE4=Trick Bag (Shoppin' For My Tombstone)
TTITLE5=Boogie At Russian Hill
TTITLE6=Hittin' The Bottle Again
TTITLE7=Bottle Up And Go
TTITLE8=Thought I Heard
TTITLE9=I Ain't Gonna Suffer No More
EXTD=
EXTT0=
EXTT1=
EXTT2=
EXTT3=
EXTT4=
EXTT5=
EXTT6=
EXTT7=
EXTT8=
EXTT9=
PLAYORDER=
